<svg id="Layer_1" data-name="Layer 1" xmlns="http://www.w3.org/2000/svg" viewBox="0 0 306.2 145.96"><defs><style>.cls-1{fill:#8ac240;}.cls-2{fill:#f29022;}.cls-3{fill:#060505;}.cls-4{fill:#221f1f;}</style></defs><title>ACT LOGO</title><path class="cls-1" d="M24.94,124.2s23.68-75.88,98.72-82.36c12.57-1,27.13,7.43,29.68,14.62,0,0,6-38.61-31.24-36.8S36.8,58.47,26,97.23a52.74,52.74,0,0,0-1.28,26.09Z" transform="translate(-23.63 -19.59)"/><path class="cls-2" d="M45.49,89.88s2.25,22.43,19.84,21.82c18-.63,37.92-16.28,43.17-21.71,9-9.25,22.13-26.15,15.79-47.8,0,0-12.12,40.12-48.74,53.3,0,0-15.8,5.63-23.95-.8l-6.11-4.81" transform="translate(-23.63 -19.59)"/><path class="cls-3" d="M192.74,86.3H165.21L158.5,97.71H145.72l35.41-59.42h18.12l7.36,59.42H194.07ZM191.89,78,188.27,47,170.05,78Z" transform="translate(-23.63 -19.59)"/><path class="cls-3" d="M256.55,76.51h12.1l-.46,2c-2,8.25-4.9,13.62-8.75,16.08s-11.23,3.6-22.3,3.6c-12.61,0-19.82-1.93-21.83-5.77s-1-14,3-30.74c2.33-9.78,5.87-16.22,10.48-19.33s13.23-4.65,25.77-4.65c9.05,0,14.83,1.24,17.27,3.84s2.71,7.55,1,15.12L272.52,58H260.35l.37-1.5c1-3.93.74-6.39-.62-7.48s-4.72-1.62-10.29-1.62c-7.53,0-12.18.82-14.17,2.54s-3.84,6.78-5.86,15.26c-2.77,11.34-3.68,18.1-2.9,20.21.93,2.07,5.05,3.13,12.48,3.13,6,0,10-.58,12.11-1.78s3.57-3.7,4.49-7.62Z" transform="translate(-23.63 -19.59)"/><polygon class="cls-3" points="284.74 28.78 272.93 78.11 260.87 78.11 272.66 28.78 254.27 28.78 256.66 18.69 306.2 18.69 303.78 28.78 284.74 28.78"/><path class="cls-3" d="M209.11,114H207l-.89,3.35H208a2.89,2.89,0,0,0,1.55-.28,2.13,2.13,0,0,0,.65-1.31c.22-.83.28-1.28.14-1.46S209.79,114,209.11,114Z" transform="translate(-23.63 -19.59)"/><polygon class="cls-3" points="265.67 99.14 268.75 99.14 268.47 94.35 265.67 99.14"/><polygon class="cls-3" points="192.07 99.14 195.15 99.14 194.85 94.35 192.07 99.14"/><polygon class="cls-3" points="124.72 99.14 127.79 99.14 127.54 94.35 124.72 99.14"/><polygon class="cls-3" points="224.01 99.14 227.09 99.14 226.79 94.35 224.01 99.14"/><path class="cls-3" d="M302.4,114h-2.12l-.87,3.35h1.92a2.78,2.78,0,0,0,1.53-.28,2.24,2.24,0,0,0,.71-1.31c.2-.83.22-1.28.05-1.46S303.14,114,302.4,114Z" transform="translate(-23.63 -19.59)"/><path class="cls-3" d="M142,107.18l-6.41,20.94H311.3l5-20.94Zm9.57,14.7-.13-1.84h-3.84l-1.05,1.84h-1.78l5.39-9.32h2.5l.72,9.32Zm12,0h-2.15l-2.29-4h-.82l-1,4h-1.74l2.42-9.32h1.76l-1,3.77h.8l3.94-3.77h2.13l-4.76,4.53Zm10.63-6.94-.11.34h-1.72c.07-.1.07-.13.12-.19.07-.56,0-.85-.12-1a2.93,2.93,0,0,0-1.25-.18,4.13,4.13,0,0,0-1.64.23,1.55,1.55,0,0,0-.65,1c-.15.59-.11.93.08,1a5.48,5.48,0,0,0,1.88.3,4.74,4.74,0,0,1,2.47.55,2.42,2.42,0,0,1,.09,2,4,4,0,0,1-1.3,2.41,6.45,6.45,0,0,1-3.22.53c-1.43,0-2.27-.14-2.68-.53s-.44-1.06-.12-2.13l.08-.33h1.63l0,.14c-.16.69-.16,1.06,0,1.24a4.36,4.36,0,0,0,1.74.22,4,4,0,0,0,1.57-.24,2.34,2.34,0,0,0,.56-1.22c.14-.42.14-.7,0-.88a1.9,1.9,0,0,0-1-.28l-.89-.07a4.27,4.27,0,0,1-2.62-.6c-.3-.32-.3-1-.06-2.06a3.26,3.26,0,0,1,1.28-2.17,5.83,5.83,0,0,1,3-.58A4.33,4.33,0,0,1,174,113C174.39,113.31,174.44,113.94,174.21,114.94Zm2.74,6.94h-1.69l2.4-9.32h1.68Zm16.65-6.41,0,.15h-1.73v-.17c.21-.67.18-1,0-1.21s-.65-.26-1.46-.26a3.18,3.18,0,0,0-1.95.39,6.4,6.4,0,0,0-1,2.41A9.11,9.11,0,0,0,187,120c.1.34.67.46,1.73.46a3.35,3.35,0,0,0,1.68-.26c.35-.13.56-.54.71-1.16l.1-.47h1.72l-.09.32a4,4,0,0,1-1.32,2.53,5.72,5.72,0,0,1-3.21.57c-1.72,0-2.77-.31-3-.91s-.09-2.19.54-4.79a5.38,5.38,0,0,1,1.63-3,7.1,7.1,0,0,1,3.71-.75c1.29,0,2.1.24,2.4.62S193.92,114.29,193.6,115.47Zm8.92-1.44h-4.46l-.62,2.4h4.24l-.37,1.32h-4.13l-.73,2.62H201l-.42,1.52h-6.16l2.36-9.33h6.15Zm8.22,4.18a4.09,4.09,0,0,1-2.62.63h-2.41l-.78,3h-1.69l2.39-9.33h4.07c1.23,0,2,.2,2.29.67s.36,1.28,0,2.51A4,4,0,0,1,210.74,118.21Zm8.26,3.67-.15-1.84h-3.92l-1,1.84h-1.77l5.35-9.32h2.57l.65,9.32Zm12.22-7.76h-2.7l-2,7.77h-1.68l2-7.77h-2.58l.34-1.56h7.06Zm8.66,7.77h-1.72l2-7.77h-2.6l.41-1.56h7l-.38,1.56h-2.69Zm11,0-.08-1.84h-3.86l-1,1.84H244l5.45-9.32H252l.66,9.32Zm12.39,0h-2.91l-1.25-5.11c-.08-.27-.16-.7-.27-1.33l-.1-.7-.1-.67h-.12l-.13.6-.13.61-.29,1.26-1.37,5.34h-1.7l2.4-9.32h2.88l1.13,4.7c.09.44.23.95.3,1.53l.23.78.11.76h0l.14-.62.14-.62.29-1.17,1.38-5.36h1.72Zm12.19-6.56h-1.71c.06-.58.06-1-.1-1.1a3.13,3.13,0,0,0-1.69-.25,3.54,3.54,0,0,0-2,.4,3.88,3.88,0,0,0-.84,1.78l-.24.94-.31,1.22c-.22.91-.28,1.5-.06,1.73s.72.38,1.74.38a3.49,3.49,0,0,0,1.86-.32,2.78,2.78,0,0,0,.78-1.5l.1-.39h-2.26l.32-1.32H275l-.44,1.85a4.59,4.59,0,0,1-1.39,2.63c-.58.42-1.73.56-3.43.56-1.54,0-2.54-.25-2.9-.75s-.38-1.57.05-3.15a15.76,15.76,0,0,1,1.31-3.91,3,3,0,0,1,1.52-1.28,6.93,6.93,0,0,1,2.64-.39c1.59,0,2.62.18,2.93.55S275.74,114.12,275.43,115.32Zm8.3-1.1c-.15-.19-.76-.25-1.65-.25a3.45,3.45,0,0,0-1.94.4,3.21,3.21,0,0,0-.87,1.78l-.26.94-.29,1.22c-.26.91-.26,1.5,0,1.73s.78.38,1.71.38a3.76,3.76,0,0,0,1.89-.32,3.08,3.08,0,0,0,.79-1.5l.07-.39h-2.28l.33-1.32h4l-.48,1.85a4.33,4.33,0,0,1-1.43,2.63c-.56.42-1.72.56-3.39.56s-2.53-.25-2.89-.75-.39-1.57.05-3.15a16.32,16.32,0,0,1,1.27-3.91,3.16,3.16,0,0,1,1.52-1.28,7,7,0,0,1,2.67-.39c1.6,0,2.59.18,3,.55s.38,1.12.09,2.32h-1.74C284,114.74,283.92,114.33,283.73,114.22Zm8.84,7.66-.11-1.84h-3.92l-1,1.84H285.7l5.44-9.32h2.54l.67,9.32Zm12.73-6.14a4.56,4.56,0,0,1-1.22,2.47,4.36,4.36,0,0,1-2.66.63H299l-.71,3h-1.75l2.41-9.33H303c1.22,0,2,.2,2.31.67S305.64,114.51,305.3,115.74Z" transform="translate(-23.63 -19.59)"/><path class="cls-4" d="M34.75,162.76v1.82a8.42,8.42,0,0,1-4.07,1,5.87,5.87,0,0,1-3.16-.8,5.94,5.94,0,0,1-2.06-2.13,6,6,0,0,1,1-7.19,5.75,5.75,0,0,1,4.24-1.67,9.52,9.52,0,0,1,3.95.92v1.76a7.89,7.89,0,0,0-3.83-1.15,4.43,4.43,0,0,0-3.22,1.27,4.24,4.24,0,0,0-1.22,3.13,4.32,4.32,0,0,0,1.22,3.13A4.42,4.42,0,0,0,30.79,164a6.93,6.93,0,0,0,4-1.26" transform="translate(-23.63 -19.59)"/><path class="cls-4" d="M49.44,153.81h1.15l5,11.63H53.89L52.46,162H47.71l-1.44,3.42H44.68Zm2.35,6.74L50,156.4l-1.7,4.15Z" transform="translate(-23.63 -19.59)"/><path class="cls-4" d="M65.63,165.44V153.83H68.4a4,4,0,0,1,2.68.91,2.93,2.93,0,0,1,1,2.37,3.28,3.28,0,0,1-.47,1.74,2.76,2.76,0,0,1-1.38,1.1,6.27,6.27,0,0,1,1,1,22.19,22.19,0,0,1,1.41,2.2c.38.61.71,1.16,1,1.46l.57.84h-1.9l-.46-.77s0-.07-.13-.15l-.27-.45-.53-.84-.53-.9a10.65,10.65,0,0,0-.93-1.16,6.85,6.85,0,0,0-.69-.58,3,3,0,0,0-1.17-.17h-.36v5Zm2.06-10.14h-.45V159h.55a4,4,0,0,0,1.67-.24,1.3,1.3,0,0,0,.69-.63,1.88,1.88,0,0,0,.3-1,1.48,1.48,0,0,0-.31-1,1.36,1.36,0,0,0-.75-.64,7.65,7.65,0,0,0-1.7-.15" transform="translate(-23.63 -19.59)"/><polygon class="cls-4" points="60.57 134.24 66.92 134.24 66.92 135.78 62.16 135.78 62.16 139.26 66.77 139.26 66.77 140.74 62.16 140.74 62.16 144.36 67.08 144.36 67.08 145.8 60.57 145.8 60.57 134.24"/><polygon class="cls-4" points="90.85 134.24 96.78 134.24 96.78 135.78 92.42 135.78 92.42 138.99 96.78 138.99 96.78 140.44 92.42 140.44 92.42 145.84 90.85 145.84 90.85 134.24"/><path class="cls-4" d="M136.38,153.67a5.66,5.66,0,0,1,4.29,1.76,6,6,0,0,1,0,8.45,6,6,0,0,1-4.4,1.68,5.73,5.73,0,0,1-4.19-1.68,5.66,5.66,0,0,1-1.68-4.17,5.82,5.82,0,0,1,1.68-4.28,5.62,5.62,0,0,1,4.3-1.76m.08,1.63a4.24,4.24,0,0,0-4.4,4.41,4.38,4.38,0,0,0,7.45,3,4.27,4.27,0,0,0,1.24-3.13,4.06,4.06,0,0,0-1.24-3.06,4.16,4.16,0,0,0-3-1.27" transform="translate(-23.63 -19.59)"/><path class="cls-4" d="M153.18,165.44V153.83h2.75a4.12,4.12,0,0,1,2.75.91,3,3,0,0,1,.95,2.37,3.1,3.1,0,0,1-.46,1.74,2.92,2.92,0,0,1-1.44,1.1,3.8,3.8,0,0,1,1.1,1c.31.43.79,1.15,1.4,2.2.4.61.71,1.16.94,1.46l.59.84h-1.89l-.48-.77s0-.07-.1-.15l-.28-.45-.51-.84-.58-.9a8.71,8.71,0,0,0-.89-1.16,3.55,3.55,0,0,0-.71-.58,3,3,0,0,0-1.13-.17h-.41v5Zm2.09-10.14h-.49V159h.63a4.06,4.06,0,0,0,1.62-.24,1.41,1.41,0,0,0,.67-.63,1.55,1.55,0,0,0,.28-1,1.62,1.62,0,0,0-.28-1,1.55,1.55,0,0,0-.73-.64,8,8,0,0,0-1.7-.15" transform="translate(-23.63 -19.59)"/><polygon class="cls-4" points="169.3 134.24 170.91 134.24 170.91 145.84 169.3 145.84 169.3 140.83 163.04 140.83 163.04 145.84 161.44 145.84 161.44 134.24 163.04 134.24 163.04 139.26 169.3 139.26 169.3 134.24"/><path class="cls-4" d="M213.54,153.83h1.6v6.59a6,6,0,0,1-.21,2,3.56,3.56,0,0,1-.46,1.1,4.51,4.51,0,0,1-.68.86,5.85,5.85,0,0,1-6.94,0,2.58,2.58,0,0,1-.66-.86,3.91,3.91,0,0,1-.48-1.08,9.92,9.92,0,0,1-.18-2.06v-6.59h1.61v6.59a5.53,5.53,0,0,0,.34,2.3,2.52,2.52,0,0,0,1.12,1,3.9,3.9,0,0,0,1.73.35,3.48,3.48,0,0,0,2.31-.74,3.06,3.06,0,0,0,.66-1,5.31,5.31,0,0,0,.24-2Z" transform="translate(-23.63 -19.59)"/><polygon class="cls-4" points="211.35 134.24 212.79 134.24 212.79 145.84 211.25 145.84 211.25 136.86 207.84 141.34 207.49 141.34 204.06 136.86 204.06 145.84 202.44 145.84 202.44 134.24 203.94 134.24 207.66 139.04 211.35 134.24"/><path class="cls-4" d="M251.17,153.81h1.14l5,11.63h-1.62L254.21,162h-4.73L248,165.44h-1.65Zm2.39,6.74-1.81-4.15-1.68,4.15Z" transform="translate(-23.63 -19.59)"/><polygon class="cls-4" points="252.6 134.24 254.04 134.24 254.04 145.84 252.67 145.84 245.24 136.97 245.24 145.84 243.74 145.84 243.74 134.24 245.02 134.24 252.6 143.25 252.6 134.24"/><rect class="cls-4" x="265.23" y="134.24" width="1.56" height="11.59"/><polygon class="cls-4" points="277.13 134.24 286.44 134.24 286.44 135.78 282.56 135.78 282.56 145.84 280.95 145.84 280.95 135.78 277.13 135.78 277.13 134.24"/><polygon class="cls-4" points="303.39 134.24 305.3 134.24 301.22 139.73 301.22 145.84 299.58 145.84 299.58 139.73 295.45 134.24 297.41 134.24 300.37 138.28 303.39 134.24"/></svg>