<?xml version="1.0" encoding="utf-8"?>
<!-- Generator: Adobe Illustrator 22.0.0, SVG Export Plug-In . SVG Version: 6.00 Build 0)  -->
<svg version="1.1" id="Layer_1" xmlns="http://www.w3.org/2000/svg" xmlns:xlink="http://www.w3.org/1999/xlink" x="0px" y="0px"
	 viewBox="0 0 306.2 146" style="enable-background:new 0 0 306.2 146;" xml:space="preserve">
<style type="text/css">
	.st0{fill:#8AC240;}
	.st1{fill:#F29022;}
	.st2{fill:#060505;}
</style>
<title>ACT LOGO</title>
<path class="st0" d="M1.3,122.6c0,0,23.7-75.9,98.7-82.4c12.6-1,27.1,7.4,29.7,14.6c0,0,6-38.6-31.2-36.8S13.2,56.9,2.4,95.6
	c-2.6,8.5-3,17.4-1.3,26.1L1.3,122.6z"/>
<path class="st1" d="M21.9,88.3c0,0,2.3,22.4,19.8,21.8c18-0.6,37.9-16.3,43.2-21.7c9-9.3,22.1-26.1,15.8-47.8
	c0,0-12.1,40.1-48.7,53.3c0,0-15.8,5.6-24-0.8L21.9,88.3"/>
<path class="st2" d="M169.1,84.7h-27.5l-6.7,11.4h-12.8l35.4-59.4h18.1l7.4,59.4h-12.5L169.1,84.7z M168.3,76.4l-3.6-31l-18.2,31
	H168.3z"/>
<path class="st2" d="M232.9,74.9H245l-0.5,2c-2,8.3-4.9,13.6-8.8,16.1c-3.9,2.5-11.2,3.6-22.3,3.6c-12.6,0-19.8-1.9-21.8-5.8
	s-1-14,3-30.7c2.3-9.8,5.9-16.2,10.5-19.3s13.2-4.7,25.8-4.7c9,0,14.8,1.2,17.3,3.8s2.7,7.5,1,15.1l-0.3,1.3h-12.2l0.4-1.5
	c1-3.9,0.7-6.4-0.6-7.5s-4.7-1.6-10.3-1.6c-7.5,0-12.2,0.8-14.2,2.5s-3.8,6.8-5.9,15.3c-2.8,11.3-3.7,18.1-2.9,20.2
	c0.9,2.1,5.1,3.1,12.5,3.1c6,0,10-0.6,12.1-1.8s3.6-3.7,4.5-7.6L232.9,74.9z"/>
<polygon class="st2" points="284.7,46.8 272.9,96.1 260.9,96.1 272.7,46.8 254.3,46.8 256.7,36.7 306.2,36.7 303.8,46.8 "/>
<path class="st2" d="M185.5,112.4h-2.1l-0.9,3.3h1.9c0.5,0.1,1.1,0,1.6-0.3c0.4-0.3,0.6-0.8,0.6-1.3c0.2-0.8,0.3-1.3,0.1-1.5
	C186.6,112.5,186.2,112.4,185.5,112.4z"/>
<polygon class="st2" points="265.7,117.1 268.8,117.1 268.5,112.3 "/>
<polygon class="st2" points="192.1,117.1 195.1,117.1 194.9,112.3 "/>
<polygon class="st2" points="124.7,117.1 127.8,117.1 127.5,112.3 "/>
<polygon class="st2" points="224,117.1 227.1,117.1 226.8,112.3 "/>
<path class="st2" d="M278.8,112.4h-2.1l-0.9,3.3h1.9c0.5,0.1,1.1,0,1.5-0.3c0.4-0.3,0.6-0.8,0.7-1.3c0.2-0.8,0.2-1.3,0-1.5
	C279.8,112.5,279.5,112.4,278.8,112.4z"/>
<path class="st2" d="M118.4,105.6l-6.4,20.9h175.7l5-20.9H118.4z M127.9,120.3l-0.1-1.8H124l-1.1,1.8h-1.8l5.4-9.3h2.5l0.7,9.3
	H127.9z M139.9,120.3h-2.1l-2.3-4h-0.8l-1,4h-1.7l2.4-9.3h1.8l-1,3.8h0.8l3.9-3.8h2.1l-4.8,4.5L139.9,120.3z M150.6,113.3l-0.1,0.3
	h-1.7c0.1-0.1,0.1-0.1,0.1-0.2c0.1-0.6,0-0.8-0.1-1c-0.4-0.2-0.8-0.2-1.3-0.2c-0.6,0-1.1,0-1.6,0.2c-0.3,0.2-0.6,0.6-0.6,1
	c-0.1,0.6-0.1,0.9,0.1,1c0.6,0.2,1.2,0.3,1.9,0.3c0.9,0,1.7,0.1,2.5,0.6c0.3,0.6,0.4,1.4,0.1,2c-0.1,0.9-0.6,1.8-1.3,2.4
	c-1,0.4-2.1,0.6-3.2,0.5c-1.4,0-2.3-0.1-2.7-0.5s-0.4-1.1-0.1-2.1l0.1-0.3h1.6v0.1c-0.2,0.7-0.2,1.1,0,1.2c0.6,0.2,1.2,0.3,1.7,0.2
	c0.5,0,1.1-0.1,1.6-0.2c0.3-0.3,0.5-0.8,0.6-1.2c0.1-0.4,0.1-0.7,0-0.9c-0.3-0.2-0.6-0.3-1-0.3l-0.9-0.1c-0.9,0.1-1.8-0.1-2.6-0.6
	c-0.3-0.3-0.3-1-0.1-2.1c0.1-0.9,0.6-1.6,1.3-2.2c0.9-0.5,2-0.7,3-0.6c0.9-0.1,1.9,0.1,2.7,0.6C150.8,111.7,150.8,112.4,150.6,113.3
	L150.6,113.3z M153.3,120.3h-1.7l2.4-9.3h1.7L153.3,120.3z M170,113.9v0.1h-1.7v-0.2c0.2-0.7,0.2-1,0-1.2c-0.2-0.2-0.6-0.3-1.5-0.3
	c-0.7-0.1-1.4,0.1-1.9,0.4c-0.5,0.7-0.8,1.5-1,2.4c-0.3,1-0.5,2.1-0.5,3.2c0.1,0.3,0.7,0.5,1.7,0.5c0.6,0.1,1.2,0,1.7-0.3
	c0.4-0.1,0.6-0.5,0.7-1.2l0.1-0.5h1.7l-0.1,0.3c-0.1,1-0.6,1.9-1.3,2.5c-1,0.5-2.1,0.7-3.2,0.6c-1.7,0-2.8-0.3-3-0.9
	s-0.1-2.2,0.5-4.8c0.2-1.2,0.8-2.2,1.6-3c1.1-0.6,2.4-0.8,3.7-0.8c1.3,0,2.1,0.2,2.4,0.6S170.3,112.7,170,113.9L170,113.9z
	 M178.9,112.4h-4.5l-0.6,2.4h4.2l-0.4,1.3h-4.1l-0.7,2.6h4.6l-0.4,1.5h-6.2l2.4-9.3h6.1L178.9,112.4z M187.1,116.6
	c-0.8,0.5-1.7,0.7-2.6,0.6h-2.4l-0.8,3h-1.7l2.4-9.3h4.1c1.2,0,2,0.2,2.3,0.7s0.4,1.3,0,2.5C188.3,115.1,187.8,116,187.1,116.6
	L187.1,116.6z M195.4,120.3l-0.1-1.8h-3.9l-1,1.8h-1.8l5.4-9.3h2.6l0.6,9.3H195.4z M207.6,112.5h-2.7l-2,7.8h-1.7l2-7.8h-2.6
	l0.3-1.6h7.1L207.6,112.5z M216.2,120.3h-1.7l2-7.8h-2.6l0.4-1.6h7l-0.4,1.6h-2.7L216.2,120.3z M227.2,120.3l-0.1-1.8h-3.9l-1,1.8
	h-1.9l5.4-9.3h2.6l0.7,9.3H227.2z M239.6,120.3h-2.9l-1.3-5.1c-0.1-0.3-0.2-0.7-0.3-1.3l-0.1-0.7l-0.1-0.7h-0.1l-0.1,0.6l-0.1,0.6
	l-0.3,1.3l-1.4,5.3h-1.7l2.4-9.3h2.9l1.1,4.7c0.1,0.4,0.2,0.9,0.3,1.5l0.2,0.8l0.1,0.8l0,0l0.1-0.6l0.1-0.6l0.3-1.2l1.4-5.4h1.7
	L239.6,120.3z M251.8,113.7h-1.7c0.1-0.6,0.1-1-0.1-1.1c-0.5-0.2-1.1-0.3-1.7-0.3c-0.7-0.1-1.4,0.1-2,0.4c-0.4,0.5-0.7,1.1-0.8,1.8
	l-0.2,0.9l-0.3,1.2c-0.2,0.9-0.3,1.5-0.1,1.7c0.2,0.2,0.7,0.4,1.7,0.4c0.6,0.1,1.3,0,1.9-0.3c0.4-0.4,0.7-0.9,0.8-1.5l0.1-0.4h-2.3
	l0.3-1.3h4l-0.4,1.9c-0.2,1-0.6,1.9-1.4,2.6c-0.6,0.4-1.7,0.6-3.4,0.6c-1.5,0-2.5-0.3-2.9-0.8s-0.4-1.6,0-3.1
	c0.3-1.4,0.7-2.7,1.3-3.9c0.3-0.6,0.9-1,1.5-1.3c0.8-0.3,1.7-0.4,2.6-0.4c1.6,0,2.6,0.2,2.9,0.6C252,111.8,252.1,112.5,251.8,113.7
	L251.8,113.7z M260.1,112.6c-0.1-0.2-0.8-0.3-1.6-0.3c-0.7-0.1-1.3,0.1-1.9,0.4c-0.5,0.5-0.8,1.1-0.9,1.8l-0.3,0.9l-0.3,1.2
	c-0.3,0.9-0.3,1.5,0,1.7c0.3,0.2,0.8,0.4,1.7,0.4c0.6,0.1,1.3-0.1,1.9-0.3c0.4-0.4,0.7-0.9,0.8-1.5l0.1-0.4h-2.3l0.3-1.3h4l-0.5,1.9
	c-0.1,1-0.7,2-1.4,2.6c-0.6,0.4-1.7,0.6-3.4,0.6s-2.5-0.3-2.9-0.8s-0.4-1.6,0-3.1c0.3-1.4,0.7-2.7,1.3-3.9c0.4-0.6,0.9-1,1.5-1.3
	c0.9-0.3,1.8-0.4,2.7-0.4c1.6,0,2.6,0.2,3,0.6c0.4,0.4,0.4,1.1,0.1,2.3h-1.7C260.4,113.1,260.3,112.7,260.1,112.6L260.1,112.6z
	 M269,120.3l-0.1-1.8h-3.9l-1,1.8h-1.9l5.4-9.3h2.5l0.7,9.3H269z M281.7,114.2c-0.1,0.9-0.6,1.8-1.2,2.5c-0.8,0.5-1.7,0.7-2.7,0.6
	h-2.4l-0.7,3h-1.8l2.4-9.3h4c1.2,0,2,0.2,2.3,0.7S282,112.9,281.7,114.2L281.7,114.2z"/>
</svg>
